<?xml version="1.0" encoding="UTF-8" standalone="no"?>
<svg width="400px" height="450px" viewBox="0 0 400 450" version="1.1" xmlns="http://www.w3.org/2000/svg" xmlns:xlink="http://www.w3.org/1999/xlink" xmlns:sketch="http://www.bohemiancoding.com/sketch/ns">
    <!-- Generator: Sketch 3.5.2 (25235) - http://www.bohemiancoding.com/sketch -->
    <title>white-logo</title>
    <desc>Created with Sketch.</desc>
    <defs></defs>
    <g id="Page-1" stroke="none" stroke-width="1" fill="none" fill-rule="evenodd" sketch:type="MSPage">
        <path d="M141.457488,237.618637 C130.963724,276.999479 121.438734,313.25397 114.467102,336.05273 C92.3999241,407.874637 65.2694707,450 43.9406932,450 C20.6254453,450 -3.44645427e-10,396.082056 -9.57158394e-16,307.454213 C3.44646448e-10,218.826371 40.4405271,168.776993 76.9958066,168.776993 C80.7738339,168.776993 86.3147524,168.776993 93.2138138,168.776994 L78.8870608,226.238461 C72.7931424,226.25534 68.1036639,226.264843 65.2694692,226.264843 C39.948983,226.264843 27.2862842,262.801386 27.2862842,310.334983 C27.2862842,357.868581 31.3940691,393.923171 40.0678362,393.923163 C48.1696156,393.923156 64.1889775,317.236115 85.8416235,226.380075 L85.8287292,226.217976 C85.6932171,226.218396 85.5581682,226.218814 85.4235857,226.21923 L99.4779562,168.776994 C99.6289791,168.776994 99.7804873,168.776994 99.9324771,168.776994 L99.9458278,168.750742 C104.77291,149.658039 108.916824,134.099903 112.7932,120.462467 L174.198278,120.629086 C169.90137,134.622621 165.508339,149.74296 161.117632,165.348357 C160.831076,166.261926 160.569975,167.125105 160.342841,167.917214 C155.38431,185.209668 148.144515,211.883043 143.507392,229.606666 C142.769869,232.425566 142.071519,235.168872 141.457488,237.618637 Z M150.882115,225.979165 C205.052896,225.764158 263.990002,225.506355 263.990002,225.506355 L315.148759,168.777001 C315.148759,168.777001 235.08809,168.776998 166.72402,168.776996 C164.070552,177.596817 161.172722,187.315172 159.287177,193.890846 C156.924013,202.132182 153.703163,214.68901 150.882115,225.979165 Z M211.94516,114.366454 C229.823507,114.366454 249.508467,114.366454 271.130332,114.366454 C432.14105,114.366455 426.598713,17.5432919 340.219862,4.45939136 C285.198352,-3.87477805 227.747599,0.995775868 202.696395,6.71294039 C179.184011,12.0789171 151.490582,15.5005026 136.268934,49.3275898 L201.551821,49.0803 C203.42327,46.142157 205.190006,44.0468905 206.834171,42.9109061 C229.936605,26.9490021 294.428413,21.6250962 328.44188,27.1470663 C362.455346,32.6690365 403.608203,56.3690254 308.848456,56.3690271 C294.282729,56.3690274 248.715752,56.3690275 197.587993,56.3690276 L197.565098,56.2657192 C197.650798,56.0932483 197.73633,55.9221695 197.821692,55.7524919 L133.673412,55.7351028 C133.596929,55.9453896 133.520864,56.1566995 133.445224,56.3690277 C133.438417,56.3881357 133.431611,56.4072413 133.424806,56.4263443 L133.540757,56.3690277 C69.6832375,56.3690277 13.368696,56.3690277 13.368696,56.3690277 L56.3316216,114.119031 C65.7085992,114.098618 101.067936,114.023538 119.95459,114.009897 C150.78515,113.987629 212.196289,114.009897 212.196289,114.009897 L211.94516,114.366454 Z" id="white-logo" fill="#FFFFFF" sketch:type="MSShapeGroup"></path>
    </g>
</svg>